<svg width="36" height="36" viewBox="0 0 36 36" fill="none" xmlns="http://www.w3.org/2000/svg">
<g clip-path="url(#clip0_836_4621)">
<path d="M30.61 24.5201C29.0031 22.7791 27.0532 21.3897 24.8829 20.4394C22.7127 19.4891 20.3692 18.9985 18 18.9985C15.6308 18.9985 13.2873 19.4891 11.1171 20.4394C8.94681 21.3897 6.99685 22.7791 5.39 24.5201C5.14192 24.7944 5.00314 25.1502 5 25.5201V31.5201C5.00526 31.9144 5.16561 32.2908 5.44635 32.5678C5.72709 32.8448 6.10562 33.0001 6.5 33.0001H29.5C29.8978 33.0001 30.2794 32.8421 30.5607 32.5607C30.842 32.2794 31 31.8979 31 31.5001V25.5001C30.992 25.1372 30.8536 24.7893 30.61 24.5201Z" fill="#A9A9A9"/>
<path d="M18 17C21.866 17 25 13.866 25 10C25 6.13401 21.866 3 18 3C14.134 3 11 6.13401 11 10C11 13.866 14.134 17 18 17Z" fill="#A9A9A9"/>
</g>
<defs>
<clipPath id="clip0_836_4621">
<rect width="36" height="36" fill="white"/>
</clipPath>
</defs>
</svg>
