<svg width="120" height="120" viewBox="0 0 120 120" fill="none" xmlns="http://www.w3.org/2000/svg">
<path d="M15 8.75C13.3424 8.75 11.7527 9.40848 10.5806 10.5806C9.40848 11.7527 8.75 13.3424 8.75 15C8.75 16.6576 9.40848 18.2473 10.5806 19.4194C11.7527 20.5915 13.3424 21.25 15 21.25V8.75ZM25 15L31.23 14.52C31.1091 12.9504 30.4003 11.4842 29.2453 10.4145C28.0904 9.34484 26.5742 8.75039 25 8.75V15ZM105 30L111.21 30.69C111.307 29.8165 111.219 28.9324 110.951 28.0954C110.683 27.2584 110.242 26.4873 109.656 25.8323C109.07 25.1774 108.352 24.6535 107.55 24.2947C106.748 23.9358 105.879 23.7503 105 23.75V30ZM91.695 75.595L92.14 81.83L91.69 75.595H91.695ZM39.92 79.295L39.475 73.055L39.925 79.29L39.92 79.295ZM15 21.25H25V8.75H15V21.25ZM40.365 85.525L92.14 81.83L91.25 69.36L39.475 73.06L40.365 85.525ZM107.13 67.415L111.21 30.69L98.79 29.31L94.71 66.035L107.13 67.415ZM18.77 15.48L19.92 30.48L32.385 29.52L31.235 14.52L18.77 15.48ZM19.92 30.48L23.005 70.565L35.47 69.605L32.385 29.52L19.92 30.48ZM105 23.75H26.15V36.25H105V23.75ZM92.14 81.83C95.9296 81.5586 99.5044 79.9679 102.243 77.3344C104.981 74.701 106.711 71.1911 107.13 67.415L94.71 66.035C94.6129 66.9063 94.2136 67.716 93.5815 68.3234C92.9494 68.9308 92.1244 69.2976 91.25 69.36L92.14 81.83ZM39.475 73.05C38.4872 73.1203 37.5116 72.797 36.7613 72.1507C36.0109 71.5043 35.5467 70.5924 35.47 69.605L23.005 70.565C23.335 74.8463 25.3461 78.818 28.5989 81.6212C31.8518 84.4243 36.0819 85.831 40.365 85.525L39.475 73.05Z" fill="white"/>
<path d="M42.5 102.5H42.5666V102.55H42.5V102.5ZM102.433 102.5H102.5V102.55H102.433V102.5Z" fill="white" stroke="white" stroke-width="3.75" stroke-linejoin="round"/>
</svg>
