<svg width="22" height="22" viewBox="0 0 22 22" fill="none" xmlns="http://www.w3.org/2000/svg">
<path d="M5.66542 12.7778H12.7765V11H5.66542V12.7778ZM5.66542 10.1111H16.3321V8.33334H5.66542V10.1111ZM5.66542 7.44445H16.3321V5.66667H5.66542V7.44445ZM2.10986 19.8889V3.88889C2.10986 3.4 2.28409 2.98134 2.63253 2.63289C2.98097 2.28445 3.39934 2.11052 3.88764 2.11112H18.1099C18.5988 2.11112 19.0174 2.28534 19.3659 2.63378C19.7143 2.98223 19.8882 3.4006 19.8876 3.88889V14.5556C19.8876 15.0445 19.7134 15.4631 19.365 15.8116C19.0165 16.16 18.5982 16.3339 18.1099 16.3333H5.66542L2.10986 19.8889ZM3.88764 15.6L4.93209 14.5556H18.1099V3.88889H3.88764V15.6Z" fill="#EAEAF0"/>
</svg>
