<svg width="40" height="40" viewBox="0 0 40 40" fill="none" xmlns="http://www.w3.org/2000/svg">
<g clip-path="url(#clip0_783_4621)">
<path fill-rule="evenodd" clip-rule="evenodd" d="M19.9999 22.3567L29.4282 31.785C29.7425 32.0886 30.1635 32.2566 30.6005 32.2528C31.0375 32.249 31.4556 32.0737 31.7646 31.7647C32.0736 31.4557 32.2489 31.0376 32.2527 30.6007C32.2565 30.1637 32.0885 29.7427 31.7849 29.4283L22.3565 20L31.7849 10.5717C32.0885 10.2573 32.2565 9.83631 32.2527 9.39932C32.2489 8.96232 32.0736 8.5443 31.7646 8.23529C31.4556 7.92627 31.0375 7.75099 30.6005 7.74719C30.1635 7.7434 29.7425 7.91139 29.4282 8.21498L19.9999 17.6433L10.5715 8.21498C10.2558 7.91889 9.83722 7.75726 9.40442 7.76429C8.97161 7.77132 8.55852 7.94645 8.25255 8.25264C7.94658 8.55883 7.77173 8.97204 7.76501 9.40485C7.75829 9.83766 7.92022 10.2561 8.21653 10.5717L17.6432 20L8.21487 29.4283C8.05568 29.5821 7.92871 29.766 7.84137 29.9693C7.75402 30.1727 7.70804 30.3914 7.70612 30.6127C7.70419 30.8339 7.74636 31.0534 7.83017 31.2582C7.91397 31.4631 8.03772 31.6492 8.19421 31.8056C8.3507 31.9621 8.53678 32.0859 8.74161 32.1697C8.94644 32.2535 9.1659 32.2957 9.3872 32.2937C9.6085 32.2918 9.8272 32.2458 10.0305 32.1585C10.2339 32.0711 10.4178 31.9442 10.5715 31.785L19.9999 22.3567Z" fill="white"/>
</g>
<defs>
<clipPath id="clip0_783_4621">
<rect width="40" height="40" fill="white"/>
</clipPath>
</defs>
</svg>
