<svg width="120" height="120" viewBox="0 0 120 120" fill="none" xmlns="http://www.w3.org/2000/svg">
<path d="M60 110C53.0833 110 46.5833 108.687 40.5 106.06C34.4167 103.433 29.125 99.8717 24.625 95.375C20.125 90.875 16.5633 85.5833 13.94 79.5C11.3167 73.4167 10.0033 66.9167 10 60C10 53.0833 11.3133 46.5833 13.94 40.5C16.5667 34.4167 20.1283 29.125 24.625 24.625C29.125 20.125 34.4167 16.5633 40.5 13.94C46.5833 11.3167 53.0833 10.0033 60 10C66.9167 10 73.4167 11.3133 79.5 13.94C85.5833 16.5667 90.875 20.1283 95.375 24.625C99.875 29.125 103.438 34.4167 106.065 40.5C108.692 46.5833 110.003 53.0833 110 60C110 66.9167 108.687 73.4167 106.06 79.5C103.433 85.5833 99.8717 90.875 95.375 95.375C90.875 99.875 85.5833 103.438 79.5 106.065C73.4167 108.692 66.9167 110.003 60 110ZM55 99.75V90C52.25 90 49.895 89.02 47.935 87.06C45.975 85.1 44.9967 82.7467 45 80V75L21 51C20.75 52.5 20.52 54 20.31 55.5C20.1 57 19.9967 58.5 20 60C20 70.0833 23.3133 78.9167 29.94 86.5C36.5667 94.0833 44.92 98.5 55 99.75ZM89.5 87C91.1667 85.1667 92.6667 83.1867 94 81.06C95.3333 78.9333 96.4367 76.725 97.31 74.435C98.1867 72.145 98.8533 69.7917 99.31 67.375C99.7667 64.9583 99.9967 62.5 100 60C100 51.8333 97.7283 44.375 93.185 37.625C88.6417 30.875 82.58 26 75 23V25C75 27.75 74.02 30.105 72.06 32.065C70.1 34.025 67.7467 35.0033 65 35H55V45C55 46.4167 54.52 47.605 53.56 48.565C52.6 49.525 51.4133 50.0033 50 50H40V60H70C71.4167 60 72.605 60.48 73.565 61.44C74.525 62.4 75.0033 63.5867 75 65V80H80C82.1667 80 84.125 80.6467 85.875 81.94C87.625 83.2333 88.8333 84.92 89.5 87Z" fill="#F8F8F8"/>
</svg>
