<svg width="120" height="120" viewBox="0 0 120 120" fill="none" xmlns="http://www.w3.org/2000/svg">
<path d="M45 70C51.905 70 58.155 67.2 62.68 62.675C67.2 58.155 70 51.905 70 45C70 38.095 67.2 31.845 62.68 27.325C58.155 22.8 51.905 20 45 20C38.095 20 31.845 22.8 27.32 27.325C22.8 31.845 20 38.095 20 45C20 51.905 22.8 58.155 27.32 62.675C29.6391 65.0005 32.3948 66.8449 35.429 68.1019C38.4631 69.359 41.7158 70.0041 45 70ZM45 105C62.59 105 75 100 75 95C75 85 63.23 75 45 75C26.25 75 15 85 15 95C15 100 26.25 105 45 105ZM105 60H95V50C95 48.6739 94.4732 47.4021 93.5355 46.4645C92.5979 45.5268 91.3261 45 90 45C88.6739 45 87.4021 45.5268 86.4645 46.4645C85.5268 47.4021 85 48.6739 85 50V60H75C73.6739 60 72.4021 60.5268 71.4645 61.4645C70.5268 62.4021 70 63.6739 70 65C70 66.3261 70.5268 67.5979 71.4645 68.5355C72.4021 69.4732 73.6739 70 75 70H85V80C85 81.3261 85.5268 82.5979 86.4645 83.5355C87.4021 84.4732 88.6739 85 90 85C91.3261 85 92.5979 84.4732 93.5355 83.5355C94.4732 82.5979 95 81.3261 95 80V70H105C106.326 70 107.598 69.4732 108.536 68.5355C109.473 67.5979 110 66.3261 110 65C110 63.6739 109.473 62.4021 108.536 61.4645C107.598 60.5268 106.326 60 105 60Z" fill="white"/>
</svg>
