<svg width="22" height="22" viewBox="0 0 22 22" fill="none" xmlns="http://www.w3.org/2000/svg">
<g clip-path="url(#clip0_1027_4621)">
<path d="M9.62533 18.3332C9.62533 18.6978 9.77019 19.0476 10.0281 19.3054C10.2859 19.5633 10.6357 19.7082 11.0003 19.7082C11.365 19.7082 11.7147 19.5633 11.9726 19.3054C12.2305 19.0476 12.3753 18.6978 12.3753 18.3332V12.3748H18.3337C18.6983 12.3748 19.0481 12.23 19.3059 11.9721C19.5638 11.7142 19.7087 11.3645 19.7087 10.9998C19.7087 10.6352 19.5638 10.2854 19.3059 10.0276C19.0481 9.7697 18.6983 9.62484 18.3337 9.62484H12.3753V3.6665C12.3753 3.30183 12.2305 2.95209 11.9726 2.69423C11.7147 2.43637 11.365 2.2915 11.0003 2.2915C10.6357 2.2915 10.2859 2.43637 10.0281 2.69423C9.77019 2.95209 9.62533 3.30183 9.62533 3.6665V9.62484H3.66699C3.30232 9.62484 2.95258 9.7697 2.69472 10.0276C2.43686 10.2854 2.29199 10.6352 2.29199 10.9998C2.29199 11.3645 2.43686 11.7142 2.69472 11.9721C2.95258 12.23 3.30232 12.3748 3.66699 12.3748H9.62533V18.3332Z" fill="#F8F8F8"/>
</g>
<defs>
<clipPath id="clip0_1027_4621">
<rect width="22" height="22" fill="white"/>
</clipPath>
</defs>
</svg>
