<svg width="129" height="129" viewBox="0 0 129 129" fill="none" xmlns="http://www.w3.org/2000/svg">
<path d="M107.5 102.125H102.125V26.875C102.125 23.9187 99.7063 21.5 96.75 21.5H75.25C75.25 18.5438 72.8312 16.125 69.875 16.125H32.25C29.2937 16.125 26.875 18.5438 26.875 21.5V102.125H21.5C18.5438 102.125 16.125 104.544 16.125 107.5C16.125 110.456 18.5438 112.875 21.5 112.875H69.875C72.8312 112.875 75.25 110.456 75.25 107.5V32.25H91.375V107.5C91.375 110.456 93.7937 112.875 96.75 112.875H107.5C110.456 112.875 112.875 110.456 112.875 107.5C112.875 104.544 110.456 102.125 107.5 102.125ZM59.125 69.875C56.1688 69.875 53.75 67.4562 53.75 64.5C53.75 61.5438 56.1688 59.125 59.125 59.125C62.0812 59.125 64.5 61.5438 64.5 64.5C64.5 67.4562 62.0812 69.875 59.125 69.875Z" fill="white"/>
</svg>
